<svg id="visual" viewBox="0 0 900 600" width="900" height="600" xmlns="http://www.w3.org/2000/svg" xmlns:xlink="http://www.w3.org/1999/xlink" version="1.1"><rect x="0" y="0" width="900" height="600" fill="#222"></rect><defs><linearGradient id="grad1_0" x1="33.3%" y1="0%" x2="100%" y2="100%"><stop offset="20%" stop-color="#222222" stop-opacity="1"></stop><stop offset="80%" stop-color="#222222" stop-opacity="1"></stop></linearGradient></defs><defs><linearGradient id="grad2_0" x1="0%" y1="0%" x2="66.7%" y2="100%"><stop offset="20%" stop-color="#222222" stop-opacity="1"></stop><stop offset="80%" stop-color="#222222" stop-opacity="1"></stop></linearGradient></defs><g transform="translate(900, 0)"><path d="M0 459.7C-45.1 417.9 -90.1 376.2 -149.2 360.3C-208.4 344.5 -281.5 354.6 -325.1 325.1C-368.6 295.6 -382.5 226.5 -400 165.7C-417.5 104.9 -438.6 52.5 -459.7 0L0 0Z" fill="#8ec9f9"></path></g><g transform="translate(0, 600)"><path d="M0 -459.7C54.4 -431.9 108.7 -404.1 156.1 -376.9C203.6 -349.7 244 -323.1 292 -292C340 -260.9 395.5 -225.3 424.7 -175.9C453.9 -126.5 456.8 -63.3 459.7 0L0 0Z" fill="#8ec9f9"></path></g></svg>